# xmcd CD database file
#
# Track frame offsets:
#	150
#	10127
#	22322
#	36527
#	50895
#	65067
#	76072
#	87330
#	99947
#	110865
#
# Disc length: 1622 seconds
#
# Revision: 0
# Processed by: cddbd v1.5.2PL0 Copyright (c) Steve Scherf et al.
# Submitted via: CDex 1.51
#
DISCID=8906540a
DTITLE=Porter Wagoner and Dolly Parton - Porter and Dolly
DYEAR=1980
DGENRE=Country
TTITLE0=Making Plans
TTITLE1=If You Go, I'll Follow You
TTITLE2=Hide Me Away
TTITLE3=Someone Just Like You
TTITLE4=Little David's Harp
TTITLE5=Beneath The Sweet Magnolia Tree
TTITLE6=Touching Memories
TTITLE7=Daddy Did His Best
TTITLE8=If You Say I Can
TTITLE9=Singing On The Mountain
EXTD=YEAR: 1980
EXTT0=
EXTT1=
EXTT2=
EXTT3=
EXTT4=
EXTT5=
EXTT6=
EXTT7=
EXTT8=
EXTT9=
PLAYORDER=
